<?xml version="1.0" encoding="UTF-8" standalone="no"?>
<!-- Created with Inkscape (http://www.inkscape.org/) -->

<svg
   xmlns:dc="http://purl.org/dc/elements/1.1/"
   xmlns:cc="http://creativecommons.org/ns#"
   xmlns:rdf="http://www.w3.org/1999/02/22-rdf-syntax-ns#"
   xmlns:svg="http://www.w3.org/2000/svg"
   xmlns="http://www.w3.org/2000/svg"
   xmlns:sodipodi="http://sodipodi.sourceforge.net/DTD/sodipodi-0.dtd"
   xmlns:inkscape="http://www.inkscape.org/namespaces/inkscape"
   id="svg2"
   version="1.1"
   inkscape:version="0.48.5 r10040"
   width="80"
   height="80"
   xml:space="preserve"
   sodipodi:docname="it-happens-icon.svg"
   inkscape:export-filename="/home/garrett/Downloads/icon128.png"
   inkscape:export-xdpi="144"
   inkscape:export-ydpi="144"><metadata
     id="metadata8"><rdf:RDF><cc:Work
         rdf:about=""><dc:format>image/svg+xml</dc:format><dc:type
           rdf:resource="http://purl.org/dc/dcmitype/StillImage" /><dc:title></dc:title></cc:Work></rdf:RDF></metadata><defs
     id="defs6"><clipPath
       clipPathUnits="userSpaceOnUse"
       id="clipPath16"><path
         d="M 0,64 64,64 64,0 0,0 0,64 z"
         id="path18" /></clipPath></defs><sodipodi:namedview
     pagecolor="#ffffff"
     bordercolor="#666666"
     borderopacity="1"
     objecttolerance="10"
     gridtolerance="10"
     guidetolerance="10"
     inkscape:pageopacity="0"
     inkscape:pageshadow="2"
     inkscape:window-width="1920"
     inkscape:window-height="1056"
     id="namedview4"
     showgrid="false"
     inkscape:zoom="5.9"
     inkscape:cx="-1.2627832"
     inkscape:cy="46.588506"
     inkscape:window-x="0"
     inkscape:window-y="24"
     inkscape:window-maximized="1"
     inkscape:current-layer="g12" /><g
     id="g10"
     inkscape:groupmode="layer"
     inkscape:label="Elegant_circle-icons"
     transform="matrix(1.25,0,0,-1.25,0,80)"><g
       id="g12"><path
         inkscape:connector-curvature="0"
         id="path20"
         style="fill:#ffffff;fill-opacity:1;fill-rule:nonzero;stroke:none"
         d="m 16,45 10,0 0,-2 -10,0 0,2 z m -1,-33 9,0 13,0 c 1.657,0 3,1.343 3,3 L 40,21.041 36,17 23.25,17 16,17 l 0,2 7.668,0 0.248,1.187 L 24.278,22 16,22 l 0,2 8.678,0 0.6,3 -9.278,0 0,2 9.678,0 0.124,0.615 L 28.186,32 16,32 l 0,2 14.186,0 3,3 L 16,37 16,39 35.186,39 40,43.814 40,49 c 0,1.657 -1.343,3 -3,3 l -9,0 -13,0 c -1.657,0 -3,-1.343 -3,-3 l 0,-25 0,-9 c 0,-1.657 1.343,-3 3,-3" /><g
         transform="translate(51.2574,38.1006)"
         id="g22"><path
           inkscape:connector-curvature="0"
           id="path24"
           style="fill:#ffffff;fill-opacity:1;fill-rule:nonzero;stroke:none"
           d="M 0,0 1.44,-1.44 4.08,1.2 c 0.884,0.884 0.884,2.317 0,3.201 l -5.336,5.335 c -0.884,0.884 -2.317,0.884 -3.201,0 L -7.097,7.097 -5.657,5.657 0,0 z" /></g><g
         transform="translate(25.8771,19.7949)"
         id="g26"><path
           inkscape:connector-curvature="0"
           id="path28"
           style="fill:#ffffff;fill-opacity:1;fill-rule:nonzero;stroke:none"
           d="m 0,0 -0.166,-0.795 9.455,0 16.099,16.265 -1.422,1.421 -5.657,5.657 -1.414,1.414 L 1.767,8.834 0,0 z" /></g><path
         d="m 12,24 0,25 c 0,1.657 1.343,3 3,3 l 13,0 9,0 c 1.657,0 3,-1.343 3,-3 L 40,43.814 35.186,39 16,39 l 0,-2 17.186,0 -3,-3 L 16,34 16,32 28.186,32 25.802,29.615 25.678,29 16,29 l 0,-2 9.278,0 -0.6,-3 L 16,24 16,22 24.278,22 23.916,20.187 23.668,19 16,19 16,17 23.25,17 36,17 40,21.041 40,15 c 0,-1.657 -1.343,-3 -3,-3 l -13,0 -9,0 c -1.657,0 -3,1.343 -3,3 l 0,9 z M 44.186,42.343 49.843,36.686 51.265,35.265 35.166,19 l -9.455,0 0.166,0.795 1.767,8.834 15.128,15.128 1.414,-1.414 z m 2.614,5.494 c 0.884,0.884 2.318,0.884 3.202,0 l 5.335,-5.335 c 0.884,-0.884 0.884,-2.317 0,-3.201 l -2.64,-2.64 -1.44,1.44 -5.656,5.656 -1.44,1.44 2.639,2.64 z M 31.833,0 c 17.673,0 32,14.327 32,32 0,17.673 -14.327,32 -32,32 -17.673,0 -32,-14.327 -32,-32 0,-17.673 14.327,-32 32,-32"
         style="fill:#f030b8;fill-opacity:1;fill-rule:nonzero;stroke:none"
         id="path32"
         inkscape:connector-curvature="0" /><path
         inkscape:connector-curvature="0"
         id="path34"
         style="fill:#f030b8;fill-opacity:1;fill-rule:nonzero;stroke:none"
         d="m 26,45 -10,0 0,-2 10,0 0,2 z" /></g></g></svg>